<svg xmlns="http://www.w3.org/2000/svg" width="39" height="27" viewBox="0 0 39 27">
  <defs>
    <style>
      .cls-1 {
        fill: #fff;
        fill-rule: evenodd;
      }
    </style>
  </defs>
  <path id="形状_871_1" data-name="形状 871 1" class="cls-1" d="M11.022,0c2.832,0.7,2.885,1.783,5,3-0.843,1.135.127,0.145-1,1C12.962,7.5,9.2,8.643,8.024,13l7.993,7v1h-1l-2,3c-1.134-.844-0.145.127-1-1C10.323,22.08-.6,13.109.031,11l2-1Zm11.99,0C28.858,1.529,31.177,8.149,36,11v2c-2.473,1.388-3.24,3.728-5,5h-2l-5,6h-1v-1a6.716,6.716,0,0,1-3-3c1.349-.756,8.609-7.1,7.993-9L20.014,4Z"/>
</svg>
